<mxfile host="app.diagrams.net" agent="Mozilla/5.0 (Windows NT 10.0; Win64; x64) AppleWebKit/537.36 (KHTML, like Gecko) Chrome/137.0.0.0 Safari/537.36" version="27.1.4">
  <diagram name="Trang-1" id="FtSkxu7v7QI4soatODQw">
    <mxGraphModel grid="1" page="1" gridSize="10" guides="1" tooltips="1" connect="1" arrows="1" fold="1" pageScale="1" pageWidth="827" pageHeight="1169" math="0" shadow="0">
      <root>
        <mxCell id="0" />
        <mxCell id="1" parent="0" />
        <mxCell id="Rf5vf-yc053PtOxhkQL--1" style="edgeStyle=orthogonalEdgeStyle;rounded=0;orthogonalLoop=1;jettySize=auto;html=1;exitX=0.5;exitY=1;exitDx=0;exitDy=0;entryX=0.5;entryY=0;entryDx=0;entryDy=0;" edge="1" parent="1" source="Rf5vf-yc053PtOxhkQL--2" target="Rf5vf-yc053PtOxhkQL--5">
          <mxGeometry relative="1" as="geometry" />
        </mxCell>
        <mxCell id="Rf5vf-yc053PtOxhkQL--2" value="" style="ellipse;whiteSpace=wrap;html=1;" vertex="1" parent="1">
          <mxGeometry x="220" y="260" width="120" height="80" as="geometry" />
        </mxCell>
        <mxCell id="Rf5vf-yc053PtOxhkQL--3" value="Begin" style="text;html=1;align=center;verticalAlign=middle;whiteSpace=wrap;rounded=0;" vertex="1" parent="1">
          <mxGeometry x="250" y="285" width="60" height="30" as="geometry" />
        </mxCell>
        <mxCell id="Rf5vf-yc053PtOxhkQL--4" style="edgeStyle=orthogonalEdgeStyle;rounded=0;orthogonalLoop=1;jettySize=auto;html=1;exitX=0.5;exitY=1;exitDx=0;exitDy=0;" edge="1" parent="1" source="Rf5vf-yc053PtOxhkQL--5" target="Rf5vf-yc053PtOxhkQL--8">
          <mxGeometry relative="1" as="geometry" />
        </mxCell>
        <mxCell id="Rf5vf-yc053PtOxhkQL--5" value="" style="shape=parallelogram;perimeter=parallelogramPerimeter;whiteSpace=wrap;html=1;fixedSize=1;" vertex="1" parent="1">
          <mxGeometry x="220" y="400" width="120" height="60" as="geometry" />
        </mxCell>
        <mxCell id="Rf5vf-yc053PtOxhkQL--6" value="Input USD" style="text;html=1;align=center;verticalAlign=middle;whiteSpace=wrap;rounded=0;" vertex="1" parent="1">
          <mxGeometry x="235" y="415" width="90" height="30" as="geometry" />
        </mxCell>
        <mxCell id="Rf5vf-yc053PtOxhkQL--7" style="edgeStyle=orthogonalEdgeStyle;rounded=0;orthogonalLoop=1;jettySize=auto;html=1;exitX=0.5;exitY=1;exitDx=0;exitDy=0;entryX=0.5;entryY=0;entryDx=0;entryDy=0;" edge="1" parent="1" source="Rf5vf-yc053PtOxhkQL--8" target="Rf5vf-yc053PtOxhkQL--11">
          <mxGeometry relative="1" as="geometry" />
        </mxCell>
        <mxCell id="Rf5vf-yc053PtOxhkQL--8" value="" style="rounded=0;whiteSpace=wrap;html=1;" vertex="1" parent="1">
          <mxGeometry x="220" y="520" width="120" height="60" as="geometry" />
        </mxCell>
        <mxCell id="Rf5vf-yc053PtOxhkQL--10" style="edgeStyle=orthogonalEdgeStyle;rounded=0;orthogonalLoop=1;jettySize=auto;html=1;exitX=0.5;exitY=1;exitDx=0;exitDy=0;entryX=0.5;entryY=0;entryDx=0;entryDy=0;" edge="1" parent="1" source="Rf5vf-yc053PtOxhkQL--11" target="Rf5vf-yc053PtOxhkQL--12">
          <mxGeometry relative="1" as="geometry" />
        </mxCell>
        <mxCell id="Rf5vf-yc053PtOxhkQL--11" value="" style="shape=parallelogram;perimeter=parallelogramPerimeter;whiteSpace=wrap;html=1;fixedSize=1;" vertex="1" parent="1">
          <mxGeometry x="220" y="640" width="120" height="60" as="geometry" />
        </mxCell>
        <mxCell id="Rf5vf-yc053PtOxhkQL--12" value="" style="ellipse;whiteSpace=wrap;html=1;" vertex="1" parent="1">
          <mxGeometry x="220" y="760" width="120" height="80" as="geometry" />
        </mxCell>
        <mxCell id="Rf5vf-yc053PtOxhkQL--13" value="Output VND" style="text;html=1;align=center;verticalAlign=middle;whiteSpace=wrap;rounded=0;" vertex="1" parent="1">
          <mxGeometry x="250" y="655" width="60" height="30" as="geometry" />
        </mxCell>
        <mxCell id="Rf5vf-yc053PtOxhkQL--14" value="END" style="text;html=1;align=center;verticalAlign=middle;whiteSpace=wrap;rounded=0;" vertex="1" parent="1">
          <mxGeometry x="250" y="790" width="60" height="30" as="geometry" />
        </mxCell>
        <mxCell id="Rf5vf-yc053PtOxhkQL--15" value="VND = USD*23.000" style="text;html=1;align=center;verticalAlign=middle;whiteSpace=wrap;rounded=0;" vertex="1" parent="1">
          <mxGeometry x="250" y="535" width="60" height="30" as="geometry" />
        </mxCell>
        <mxCell id="Rf5vf-yc053PtOxhkQL--16" value="&lt;h1 style=&quot;margin-top: 0px;&quot;&gt;Begin&lt;/h1&gt;&lt;div&gt;Input USD&lt;/div&gt;&lt;div&gt;&lt;br&gt;&lt;/div&gt;&lt;div&gt;VND = USD*23000&lt;/div&gt;&lt;div&gt;&lt;br&gt;&lt;/div&gt;&lt;div&gt;ouput VND&lt;/div&gt;&lt;div&gt;&lt;br&gt;&lt;/div&gt;&lt;div&gt;END&lt;/div&gt;" style="text;html=1;whiteSpace=wrap;overflow=hidden;rounded=0;" vertex="1" parent="1">
          <mxGeometry x="510" y="400" width="200" height="290" as="geometry" />
        </mxCell>
      </root>
    </mxGraphModel>
  </diagram>
</mxfile>
